<?xml version="1.0" encoding="utf-8"?>
<!-- Svg Vector Icons : http://www.onlinewebfonts.com/icon -->
<!DOCTYPE svg PUBLIC "-//W3C//DTD SVG 1.1//EN" "http://www.w3.org/Graphics/SVG/1.1/DTD/svg11.dtd">
<svg version="1.1" xmlns="http://www.w3.org/2000/svg" xmlns:xlink="http://www.w3.org/1999/xlink" x="0px" y="0px" viewBox="0 0 256 256" enable-background="new 0 0 256 256" xml:space="preserve">
<metadata> Svg Vector Icons : http://www.onlinewebfonts.com/icon </metadata>
<g><g><g><path fill="#000000" d="M116.6,10.3c-27.8,2.9-52.7,14.6-72.2,34.2c-18.7,18.7-29.9,41.5-33.8,69c-0.4,2.5-0.6,8.4-0.6,14.8c0,8.6,0.2,11.8,1,17.1c2.1,13.1,5.4,23.6,11.2,35.3c11.5,23.2,29.8,41.5,53.1,53.1c15.6,7.8,31,11.7,48.6,12.3c19.2,0.7,37.5-3.1,54.9-11.5c12.6-6.1,21.2-12.1,31.1-21.7c10.8-10.5,17.3-19.5,23.8-32.8c2.1-4.3,4.6-10,5.5-12.7c10.5-30.5,8.5-62.7-5.5-91.2c-6.3-12.6-12.4-21.2-22.1-31.1c-18.4-18.6-40.8-29.9-67.2-34C138.7,10.1,122.5,9.7,116.6,10.3z M180.1,104.3l10.9,18.8l-5.5,0.1l-5.5,0.1v28.3v28.4h-51.9H76.2v-28.4v-28.4h-5.6c-4.9,0-5.5-0.1-5.3-0.7c0.2-0.6,9.4-16.5,18.4-31.7l3.2-5.4H128l41.2,0L180.1,104.3z"/><path fill="#000000" d="M89.6,99.4c-1.3,2.4-3.8,6.5-5.4,9.2l-2.9,5H88h6.7v-9.2v-9.2h-1.3C92.2,95.2,91.8,95.7,89.6,99.4z"/><path fill="#000000" d="M104.3,104.4v9.2h4.6h4.6v-9.2v-9.2H109h-4.6L104.3,104.4L104.3,104.4z"/><path fill="#000000" d="M123.3,104.4v9.2h4.6h4.6v-9.2v-9.2h-4.6h-4.6V104.4z"/><path fill="#000000" d="M142.2,104.4v9.2h4.6h4.6v-9.2v-9.2h-4.6h-4.6V104.4z"/><path fill="#000000" d="M161.1,104.4v9.2h6.7c3.7,0,6.6-0.1,6.5-0.4c-0.1-0.2-2.5-4.3-5.4-9.2c-4.8-8.3-5.3-8.9-6.5-8.9h-1.3V104.4z"/><path fill="#000000" d="M85.4,146.9v23.5h28.4h28.4v-23.5v-23.5h-28.4H85.4V146.9z"/><path fill="#000000" d="M151.4,146.9v23.5h9.5h9.5v-23.5v-23.5h-9.5h-9.5V146.9z"/></g></g></g>
</svg>